<svg id="remove_red_eye-24px" xmlns="http://www.w3.org/2000/svg" width="16" height="16" viewBox="0 0 16 16">
  <path id="Контур_418" data-name="Контур 418" d="M0,0H16V16H0Z" fill="none"/>
  <path id="Контур_419" data-name="Контур 419" d="M8.194,5.666a6.5,6.5,0,0,1,5.769,3.208,6.493,6.493,0,0,1-5.769,3.208A6.493,6.493,0,0,1,2.426,8.874,6.5,6.5,0,0,1,8.194,5.666m0-1.166A7.77,7.77,0,0,0,1,8.874a7.77,7.77,0,0,0,7.194,4.374,7.77,7.77,0,0,0,7.194-4.374A7.77,7.77,0,0,0,8.194,4.5Zm0,2.916A1.555,1.555,0,0,1,9.829,8.874a1.555,1.555,0,0,1-1.635,1.458A1.555,1.555,0,0,1,6.559,8.874,1.555,1.555,0,0,1,8.194,7.416m0-1.166A2.8,2.8,0,0,0,5.251,8.874,2.8,2.8,0,0,0,8.194,11.5a2.8,2.8,0,0,0,2.943-2.625A2.8,2.8,0,0,0,8.194,6.25Z" transform="translate(-0.194 -0.874)" fill="#9d9d9d"/>
</svg>
