<svg xmlns="http://www.w3.org/2000/svg" width="16" height="14.659" viewBox="0 0 16 14.659">
  <g id="filter_1_" data-name="filter (1)" transform="translate(-3.013 -3.766)">
    <path id="Path_260" data-name="Path 260" d="M18.387,5.105H8.854a1.966,1.966,0,0,0-3.728,0H3.638a.625.625,0,1,0,0,1.251H5.126a1.966,1.966,0,0,0,3.728,0h9.532a.625.625,0,1,0,0-1.251ZM6.99,6.445a.714.714,0,1,1,.715-.714A.715.715,0,0,1,6.99,6.445Z" transform="translate(0 0)" fill="#181c32"/>
    <path id="Path_261" data-name="Path 261" d="M18.387,11.13H16.9a1.966,1.966,0,0,0-3.728,0H3.638a.625.625,0,1,0,0,1.251h9.532a1.966,1.966,0,0,0,3.728,0h1.488a.625.625,0,1,0,0-1.251Zm-3.352,1.34a.714.714,0,1,1,.715-.714A.715.715,0,0,1,15.035,12.47Z" transform="translate(0 -0.66)" fill="#181c32"/>
    <path id="Path_262" data-name="Path 262" d="M18.387,17.155H11.536a1.966,1.966,0,0,0-3.728,0H3.638a.625.625,0,1,0,0,1.251H7.808a1.966,1.966,0,0,0,3.728,0h6.851a.625.625,0,1,0,0-1.251ZM9.672,18.5a.714.714,0,1,1,.715-.714A.715.715,0,0,1,9.672,18.5Z" transform="translate(0 -1.321)" fill="#181c32"/>
  </g>
</svg>
