<svg xmlns="http://www.w3.org/2000/svg" width="9.554" height="12.777" viewBox="0 0 9.554 12.777">
  <path id="Path_430" data-name="Path 430" d="M8.777,8.389A1.242,1.242,0,0,1,7.583,7.111,1.242,1.242,0,0,1,8.777,5.833,1.242,1.242,0,0,1,9.971,7.111,1.242,1.242,0,0,1,8.777,8.389Zm3.583-1.15A3.692,3.692,0,0,0,8.777,3.278,3.692,3.692,0,0,0,5.194,7.239c0,1.495,1.164,3.475,3.583,5.839C11.2,10.714,12.36,8.734,12.36,7.239ZM8.777,2a4.927,4.927,0,0,1,4.777,5.239q0,3.182-4.777,7.539Q4,10.417,4,7.239A4.927,4.927,0,0,1,8.777,2Z" transform="translate(-4 -2)" fill="#ffa800"/>
</svg>
