<svg xmlns="http://www.w3.org/2000/svg" width="19.564" height="19.564" viewBox="0 0 19.564 19.564">
  <g id="Group_235" data-name="Group 235" transform="translate(0 0)">
    <g id="Group_234" data-name="Group 234">
      <path id="Path_177" data-name="Path 177" d="M17.9,11.715a.764.764,0,0,0-1.417.573l.9,2.226-2.673-1.178a.764.764,0,0,0-.608,0,7.369,7.369,0,0,1-2.909.587,6.621,6.621,0,0,1-6.84-6.2c0-3.416,3.068-6.2,6.84-6.2s6.84,2.779,6.84,6.2a6.232,6.232,0,0,1-.068.876.764.764,0,0,0,1.512.226,7.712,7.712,0,0,0,.085-1.1,7.386,7.386,0,0,0-2.475-5.485A8.685,8.685,0,0,0,11.2,0,8.685,8.685,0,0,0,5.3,2.239,7.428,7.428,0,0,0,2.858,7.066,6.178,6.178,0,0,0,0,12.209a5.929,5.929,0,0,0,1.172,3.543L.056,18.513a.764.764,0,0,0,1.017.986L4.291,18.08a7.273,7.273,0,0,0,2.549.454l.057,0a7.233,7.233,0,0,0,3.6-.975A6.579,6.579,0,0,0,12.8,15.306a8.794,8.794,0,0,0,1.588-.441l4.1,1.807a.764.764,0,0,0,1.017-.986ZM6.84,17l-.031,0a5.732,5.732,0,0,1-2.233-.457.764.764,0,0,0-.608,0l-1.79.789.577-1.428a.764.764,0,0,0-.127-.782,4.461,4.461,0,0,1-1.1-2.922A4.547,4.547,0,0,1,2.941,8.954,7.715,7.715,0,0,0,5.2,13.085a8.542,8.542,0,0,0,5.56,2.352A5.617,5.617,0,0,1,6.84,17Z" transform="translate(0 0)" fill="#494b74"/>
      <circle id="Ellipse_25" data-name="Ellipse 25" cx="1" cy="1" r="1" transform="translate(9.999 7)" fill="#494b74"/>
      <circle id="Ellipse_26" data-name="Ellipse 26" cx="1" cy="1" r="1" transform="translate(12.999 7)" fill="#494b74"/>
      <circle id="Ellipse_27" data-name="Ellipse 27" cx="1" cy="1" r="1" transform="translate(6.999 7)" fill="#494b74"/>
    </g>
  </g>
</svg>
