<svg xmlns="http://www.w3.org/2000/svg" width="18.991" height="24" viewBox="0 0 18.991 24">
  <path id="notification" d="M21.1,19.1a3.729,3.729,0,0,1-1.133-1.543A17.855,17.855,0,0,1,18.789,10.5c0-.009,0-.018,0-.027A6.81,6.81,0,0,0,14.78,4.3V2.674A2.674,2.674,0,0,0,12.111,0h-.221A2.674,2.674,0,0,0,9.22,2.674V4.3a6.81,6.81,0,0,0-4.009,6.2A17.855,17.855,0,0,1,4.03,17.556,3.729,3.729,0,0,1,2.9,19.1a.684.684,0,0,0-.375.777.715.715,0,0,0,.705.55H8.38a3.62,3.62,0,0,0,7.24,0h5.154a.715.715,0,0,0,.705-.55A.684.684,0,0,0,21.1,19.1ZM10.627,2.674a1.265,1.265,0,0,1,1.263-1.265h.221a1.265,1.265,0,0,1,1.263,1.265V3.842a6.81,6.81,0,0,0-2.747,0V2.674ZM12,22.591a2.219,2.219,0,0,1-2.214-2.165h4.427A2.219,2.219,0,0,1,12,22.591Zm2.831-3.574h-10a7.37,7.37,0,0,0,.368-.647,17.8,17.8,0,0,0,1.42-7.87,5.382,5.382,0,1,1,10.764,0c0,.009,0,.017,0,.026a17.766,17.766,0,0,0,1.42,7.842,7.375,7.375,0,0,0,.368.647Z" transform="translate(-2.505 0)" fill="#494b74"/>
</svg>
