<svg id="list" xmlns="http://www.w3.org/2000/svg" width="19.563" height="20" viewBox="0 0 19.563 19.563">
  <path id="Path_15" data-name="Path 15" d="M2.751,5.5A2.751,2.751,0,1,1,5.5,2.751,2.754,2.754,0,0,1,2.751,5.5Zm0-4.279A1.528,1.528,0,1,0,4.279,2.751,1.53,1.53,0,0,0,2.751,1.223Z" fill="#494b74"/>
  <path id="Path_16" data-name="Path 16" d="M2.751,189.5A2.751,2.751,0,1,1,5.5,186.751,2.754,2.754,0,0,1,2.751,189.5Zm0-4.279a1.528,1.528,0,1,0,1.528,1.528A1.53,1.53,0,0,0,2.751,185.223Z" transform="translate(0 -176.97)" fill="#2f2f51"/>
  <path id="Path_17" data-name="Path 17" d="M2.751,373.5A2.751,2.751,0,1,1,5.5,370.751,2.754,2.754,0,0,1,2.751,373.5Zm0-4.279a1.528,1.528,0,1,0,1.528,1.528A1.53,1.53,0,0,0,2.751,369.223Z" transform="translate(0 -353.939)" fill="#2f2f51"/>
  <path id="Path_18" data-name="Path 18" d="M186.087,5.5h-7.336a2.751,2.751,0,0,1,0-5.5h7.336a2.751,2.751,0,0,1,0,5.5Z" transform="translate(-169.275)" fill="#494b74"/>
  <path id="Path_19" data-name="Path 19" d="M186.087,189.5h-7.336a2.751,2.751,0,0,1,0-5.5h7.336a2.751,2.751,0,0,1,0,5.5Z" transform="translate(-169.275 -176.97)" fill="#2f2f51"/>
  <path id="Path_20" data-name="Path 20" d="M186.087,373.5h-7.336a2.751,2.751,0,1,1,0-5.5h7.336a2.751,2.751,0,0,1,0,5.5Z" transform="translate(-169.275 -353.939)" fill="#2f2f51"/>
</svg>
