<svg id="pdf" xmlns="http://www.w3.org/2000/svg" width="14" height="14" viewBox="0 0 14 14">
  <g id="drive-pdf">
    <path id="Path_254" data-name="Path 254" d="M6.456,4.356h0a2.886,2.886,0,0,0,.156-.7V3.5a1.214,1.214,0,0,0,0-.778V2.644l-.078-.078h0a.076.076,0,0,1-.078.078,3.164,3.164,0,0,0,0,1.711ZM4.122,9.722a1.7,1.7,0,0,0-.389.233A3.832,3.832,0,0,0,2.722,11.2h0c.467-.078.933-.544,1.4-1.478Zm7.156-1.167c-.078-.078-.389-.311-1.478-.311H9.644v.078a4.175,4.175,0,0,0,1.478.389h.233V8.633h0A.076.076,0,0,1,11.278,8.556ZM12.444,0H1.556A1.56,1.56,0,0,0,0,1.556V12.444A1.56,1.56,0,0,0,1.556,14H12.444A1.56,1.56,0,0,0,14,12.444V1.556A1.56,1.56,0,0,0,12.444,0Zm-.856,9.178a1.553,1.553,0,0,1-.7.156,5.607,5.607,0,0,1-2.333-.544,12.807,12.807,0,0,0-3.111.622c-.078,0-.078,0-.156.078C4.356,11.122,3.578,11.9,2.956,11.9c-.156,0-.233,0-.311-.078l-.389-.233v-.078a.7.7,0,0,1-.078-.389A2.994,2.994,0,0,1,3.656,9.489c.156-.078.389-.233.7-.389.233-.389.467-.856.778-1.4a16.455,16.455,0,0,0,.856-2.256h0a3.61,3.61,0,0,1-.156-2.567c.078-.311.311-.622.622-.622h.156a1.105,1.105,0,0,1,.467.156c.544.544.311,1.789,0,2.8v.078A5.617,5.617,0,0,0,8.322,7.311a5.458,5.458,0,0,0,.7.467c.389,0,.7-.078,1.011-.078.933,0,1.556.156,1.789.544a.986.986,0,0,1,.078.467A4.764,4.764,0,0,1,11.589,9.178ZM6.533,6.144a16.2,16.2,0,0,1-.778,1.867c-.156.311-.311.544-.467.856h.156a11.766,11.766,0,0,1,2.567-.7A1.073,1.073,0,0,1,7.7,7.933,7.907,7.907,0,0,1,6.533,6.144Z" fill="#7e8299"/>
  </g>
</svg>
