<svg id="plus" xmlns="http://www.w3.org/2000/svg" width="16" height="16" viewBox="0 0 16 16">
  <g id="Group_111" data-name="Group 111">
    <g id="Group_110" data-name="Group 110">
      <path id="Path_81" data-name="Path 81" d="M15.333,7.333A.667.667,0,0,0,14.667,8a6.666,6.666,0,1,1-1.936-4.7.667.667,0,1,0,.946-.939A8,8,0,1,0,16,8,.667.667,0,0,0,15.333,7.333Z" fill="#ff818e"/>
    </g>
  </g>
  <g id="Group_113" data-name="Group 113" transform="translate(3.833 3.833)">
    <g id="Group_112" data-name="Group 112">
      <path id="Path_82" data-name="Path 82" d="M13.333,9.167h-2.5v-2.5a.833.833,0,1,0-1.667,0v2.5h-2.5a.833.833,0,1,0,0,1.667h2.5v2.5a.833.833,0,0,0,1.667,0v-2.5h2.5a.833.833,0,0,0,0-1.667Z" transform="translate(-5.833 -5.833)" fill="#fff"/>
    </g>
  </g>
</svg>
